# xmcd
#
# Track frame offsets:
#	150
#	59993
#	76905
#	108824
#	142368
#
# Disc length: 2253 seconds
#
# Revision: 1
# Processed by: cddbd v1.5.1PL0 Copyright (c) Steve Scherf et al.
# Submitted via: CDmax 2.0
#
DISCID=4708cb05
DTITLE=mörkö - III
DYEAR=2001
DGENRE=Blues
TTITLE0=turjake
TTITLE1=painovoima
TTITLE2=pieksentää kuolon partaalle
TTITLE3=vapatahja
TTITLE4=tyhjyys
EXTD=
EXTT0=
EXTT1=
EXTT2=
EXTT3=
EXTT4=
PLAYORDER=
